<?xml version="1.0" encoding="UTF-8"?>
<svg id="Layer_1" xmlns="http://www.w3.org/2000/svg" version="1.1" viewBox="0 0 800 800">
  <!-- Generator: Adobe Illustrator 29.6.0, SVG Export Plug-In . SVG Version: 2.1.1 Build 207)  -->
  <defs>
    <style>
      .st0 {
        fill: #fff;
      }
    </style>
  </defs>
  <g>
    <path class="st0" d="M546.98,445.75v29.11c0,22.48-18.29,40.77-40.77,40.77h-197.46c-22.48,0-40.77-18.29-40.77-40.77v-7.57c0-.71.02-1.42.07-2.12,1.94.77,4.05,1.19,6.27,1.19h21.48l.5-.04c7.6-.59,14.29-3.96,19.09-9.08,6.91,5.61,15.68,8.96,25.21,8.96,11.59,0,22.05-4.96,29.43-12.9,7.37,7.94,17.83,12.9,29.42,12.9,8.24,0,15.91-2.51,22.3-6.81,3.05,4.31,8.07,7.12,13.73,7.12,6.21,0,11.64-3.34,14.6-8.32l1.53,2,.18.22c3.23,3.88,7.97,6.1,13,6.1,2.27,0,4.53-.47,6.62-1.36,1.9.73,3.97,1.13,6.13,1.13h27.48c3.13,0,6.06-.85,8.57-2.33,2.42,1.33,5.19,2.09,8.14,2.09,9.31,0,16.88-7.61,16.88-16.96v-11.02c1.06-.63,2.08-1.33,3.05-2.08,3.2,2.08,5.32,5.69,5.32,9.77Z"/>
    <path class="st0" d="M407.74,242.26h-81.53c-46.59,0-58.23,11.65-58.23,58.23v88.28c8.85-7.8,20.5-12.58,33.19-12.58h153.16c6.41,0,11.65-5.24,11.65-11.65v-64.06c0-46.59-11.65-58.23-58.23-58.23ZM378.63,344.17h-58.23c-4.78,0-8.74-3.96-8.74-8.74s3.96-8.74,8.74-8.74h58.23c4.78,0,8.74,3.96,8.74,8.74s-3.96,8.74-8.74,8.74ZM413.57,303.41h-93.17c-4.78,0-8.74-3.96-8.74-8.74s3.96-8.74,8.74-8.74h93.17c4.78,0,8.74,3.96,8.74,8.74s-3.96,8.74-8.74,8.74Z"/>
  </g>
  <g>
    <path class="st0" d="M310.11,437.75c-.08,8.31-6.57,14.97-14.81,15.6-.24,0,1.43,0-20.83,0h-.24c-2.22,0-3.96-1.74-3.96-3.96v-47.36c0-2.14,1.82-3.96,4.04-3.96.08,0-1.74,0,15.28,0,8.32.47,15.44,7.13,15.44,15.84-.08,3.72-1.35,7.13-3.48,9.82,5.15,2.69,8.55,8.16,8.55,14.02ZM288.97,406h-10.77v15.92h10.77c4.51,0,8.16-3.56,8.24-8.08-.08-4.43-3.72-7.84-8.24-7.84ZM302.27,437.75c0-3.96-3.56-7.84-7.92-7.92h-16.16v15.6h16.55c3.88,0,7.52-3.41,7.52-7.68Z"/>
    <path class="st0" d="M313.2,425.32c0-14.89,12.12-27.4,27.4-27.4s27.4,12.51,27.4,27.4-12.12,27.88-27.4,27.88-27.4-12.59-27.4-27.88ZM320.88,425.32c0,11.25,8.87,20.19,19.72,20.19s19.8-8.95,19.8-20.19-8.95-19.72-19.8-19.72-19.72,8.87-19.72,19.72Z"/>
    <path class="st0" d="M372.05,425.32c0-14.89,12.12-27.4,27.4-27.4s27.4,12.51,27.4,27.4-12.12,27.88-27.4,27.88-27.4-12.59-27.4-27.88ZM379.73,425.32c0,11.25,8.87,20.19,19.72,20.19s19.8-8.95,19.8-20.19-8.95-19.72-19.8-19.72-19.72,8.87-19.72,19.72Z"/>
    <path class="st0" d="M467.24,452.64c-.71.55-1.58.87-2.46.87-1.11,0-2.22-.47-3.01-1.42l-17.42-22.89-4.91,5.15v15.21c0,2.22-1.74,3.96-3.96,3.96s-3.88-1.74-3.88-3.96v-47.91c0-2.22,1.74-3.96,3.88-3.96s3.96,1.74,3.96,3.96v21.46l21.94-23.44c1.27-1.74,3.72-2.06,5.46-.71,1.74,1.27,2.06,3.72.71,5.46l-17.74,19.09,17.98,23.6c1.42,1.66,1.19,4.12-.55,5.54Z"/>
    <path class="st0" d="M508.98,449.32c0,2.22-1.82,3.96-3.96,3.96h-27.56c-2.22,0-3.96-1.74-3.96-3.96v-47.36c0-2.22,1.74-3.96,3.96-3.96s3.96,1.74,3.96,3.96v43.4h23.6c2.14,0,3.96,1.74,3.96,3.96Z"/>
    <path class="st0" d="M541.61,401.41v8.47c0,9.58-6.89,17.66-16,19.48v19.72c0,2.22-1.74,3.96-3.88,3.96s-3.96-1.74-3.96-3.96v-19.72c-9.11-1.82-15.92-9.9-15.92-19.48v-8.47c0-2.14,1.74-3.88,3.88-3.88s3.96,1.74,3.96,3.88v8.47c0,6.57,5.38,12.04,12.04,12.04s12.04-5.46,12.04-12.04v-8.47c0-2.14,1.74-3.88,3.88-3.88s3.96,1.74,3.96,3.88Z"/>
  </g>
</svg>